<?xml version="1.0" standalone="no"?>
<!DOCTYPE svg PUBLIC "-//W3C//DTD SVG 1.1//EN"
"http://www.w3.org/Graphics/SVG/1.1/DTD/svg11.dtd"><svg id="svg" version="1.1" width="720" height="720" xmlns="http://www.w3.org/2000/svg"><path d="M338.737 50.086 C 254.292 57.059,184.927 88.609,127.989 145.942 C 50.996 223.470,18.531 331.834,40.071 439.403 C 49.499 486.482,66.048 525.491,92.295 562.500 C 111.739 589.917,139.749 618.433,167.051 638.607 C 234.815 688.679,321.590 709.854,408.000 697.405 C 488.247 685.844,557.659 646.896,611.050 583.469 C 645.891 542.081,667.777 496.676,678.892 442.725 C 684.467 415.664,685.502 405.013,685.474 375.000 C 685.444 343.622,683.455 325.830,676.864 298.000 C 663.338 240.885,636.285 192.116,594.021 148.656 C 555.009 108.540,513.298 82.412,461.500 65.645 C 422.602 53.054,375.338 47.064,338.737 50.086 M384.605 67.042 C 411.670 69.230,440.158 75.357,465.500 84.440 C 493.797 94.583,531.505 115.738,555.000 134.652 C 567.028 144.335,586.666 163.649,596.300 175.273 C 642.658 231.198,666.917 294.941,669.646 368.000 C 672.613 447.393,640.509 530.352,584.561 587.871 C 531.057 642.876,471.914 672.664,396.381 682.649 C 380.371 684.766,338.167 685.067,324.000 683.166 C 292.416 678.928,262.954 670.704,235.500 658.462 C 184.963 635.927,144.164 603.788,112.648 561.689 C 73.195 508.986,52.621 451.255,50.392 387.000 C 47.830 313.132,70.328 243.866,116.326 184.000 C 120.764 178.225,131.843 166.055,140.947 156.956 C 165.731 132.186,191.129 114.009,224.080 97.460 C 270.965 73.913,330.362 62.658,384.605 67.042 M303.894 88.901 C 307.672 92.430,307.709 93.018,304.364 96.364 C 300.856 99.871,303.679 99.983,307.818 96.500 C 310.732 94.048,314.000 93.174,314.000 94.847 C 314.000 95.313,316.250 94.581,319.000 93.220 C 321.750 91.859,324.000 90.353,324.000 89.873 C 324.000 88.538,320.649 88.831,316.609 90.519 C 313.065 92.000,312.947 91.977,311.865 89.604 C 310.699 87.045,308.390 86.036,303.644 86.014 L 300.788 86.000 303.894 88.901 M436.500 89.802 C 434.850 90.789,431.250 92.427,428.500 93.442 C 419.578 96.737,415.535 99.092,417.099 100.082 C 419.612 101.674,421.570 101.067,428.586 96.521 C 436.474 91.412,440.191 90.519,435.394 94.887 C 431.744 98.210,430.314 103.000,432.972 103.000 C 435.490 103.000,436.024 102.017,434.691 99.837 C 433.701 98.217,433.813 97.711,435.357 96.835 C 436.378 96.256,438.628 94.487,440.357 92.906 C 442.997 90.490,443.260 89.870,442.000 89.030 C 440.024 87.714,439.981 87.720,436.500 89.802 M314.535 101.943 C 314.176 102.524,314.411 103.000,315.058 103.000 C 315.704 103.000,316.021 103.813,315.761 104.806 C 315.369 106.304,315.784 106.539,318.198 106.184 C 320.494 105.847,321.043 105.308,320.804 103.629 C 320.472 101.306,315.719 100.027,314.535 101.943 M309.690 104.603 C 308.145 105.441,306.356 105.952,305.715 105.738 C 304.643 105.381,297.530 112.863,298.253 113.587 C 299.138 114.471,309.338 108.334,311.103 105.855 C 313.439 102.575,313.436 102.573,309.690 104.603 M426.512 108.213 C 425.418 108.847,423.646 110.184,422.573 111.183 C 420.716 112.914,419.477 113.402,417.701 113.102 C 416.320 112.869,412.847 121.942,413.513 124.042 C 414.385 126.789,415.647 125.696,416.431 121.514 C 417.122 117.833,421.511 112.178,422.731 113.398 C 423.122 113.789,422.996 114.422,422.451 114.804 C 420.548 116.139,418.964 121.063,419.876 122.807 C 420.362 123.738,420.563 126.075,420.322 128.000 C 419.908 131.309,419.969 131.394,421.442 129.559 C 422.299 128.491,423.000 126.799,423.000 125.799 C 423.000 124.799,423.900 123.210,425.000 122.268 C 427.370 120.239,427.487 119.200,425.584 117.079 C 423.149 114.364,424.712 110.250,428.676 108.942 C 430.578 108.314,432.390 108.056,432.702 108.369 C 433.015 108.682,432.331 111.989,431.182 115.719 C 430.034 119.448,428.805 123.993,428.453 125.817 C 428.064 127.831,427.028 129.424,425.818 129.872 C 424.048 130.526,423.997 130.753,425.368 131.891 C 427.584 133.730,428.729 132.587,429.518 127.745 C 429.899 125.410,431.511 120.125,433.101 116.000 C 434.690 111.875,435.993 108.163,435.995 107.750 C 436.003 106.575,428.724 106.931,426.512 108.213 M405.033 114.668 C 404.990 118.808,405.881 121.000,407.607 121.000 C 409.667 121.000,409.314 116.598,407.033 113.861 L 405.067 111.500 405.033 114.668 M311.985 115.250 C 311.953 119.837,310.458 120.563,307.013 117.664 C 305.271 116.199,303.319 115.007,302.673 115.015 C 302.028 115.023,303.272 116.529,305.437 118.361 L 309.374 121.691 307.798 125.096 C 306.932 126.968,305.922 129.496,305.555 130.714 C 305.188 131.932,302.776 134.803,300.194 137.095 C 296.264 140.583,296.010 141.001,298.630 139.667 C 303.411 137.232,307.395 133.539,309.541 129.553 C 311.901 125.171,313.921 125.311,316.149 130.013 C 317.058 131.931,318.946 134.567,320.345 135.872 C 322.621 137.994,323.394 138.156,327.694 137.412 C 330.337 136.955,333.288 136.669,334.250 136.778 C 335.213 136.887,336.000 136.532,336.000 135.988 C 336.000 135.445,335.438 135.000,334.750 134.999 C 332.736 134.998,321.245 129.289,317.488 126.423 C 314.263 123.963,314.133 123.649,315.517 121.672 C 317.495 118.849,317.387 116.660,315.171 114.655 C 312.719 112.436,312.003 112.569,311.985 115.250 M422.000 121.000 C 422.000 121.550,421.523 122.000,420.941 122.000 C 420.359 122.000,420.160 121.550,420.500 121.000 C 420.840 120.450,421.316 120.000,421.559 120.000 C 421.802 120.000,422.000 120.450,422.000 121.000 M407.221 125.922 C 407.374 127.254,408.063 128.529,408.750 128.755 C 410.451 129.315,410.323 127.792,408.471 125.441 C 406.990 123.561,406.950 123.577,407.221 125.922 M400.000 128.483 C 400.000 128.749,402.363 130.152,405.250 131.602 C 408.138 133.052,413.274 136.884,416.663 140.119 C 420.053 143.354,423.717 146.000,424.804 146.000 C 425.892 146.000,428.658 145.160,430.952 144.133 C 434.762 142.427,434.923 142.212,432.812 141.646 C 431.540 141.306,429.143 141.021,427.484 141.014 C 425.777 141.006,421.437 139.222,417.484 136.904 C 410.002 132.516,401.405 128.000,400.533 128.000 C 400.240 128.000,400.000 128.217,400.000 128.483 M193.272 133.885 C 191.496 134.773,190.034 135.813,190.022 136.195 C 190.010 136.578,192.138 137.028,194.750 137.195 C 198.958 137.465,199.491 137.759,199.419 139.766 L 199.338 142.031 201.669 139.841 C 207.823 134.060,201.661 129.689,193.272 133.885 M206.454 140.090 C 205.036 142.890,202.046 147.165,199.810 149.590 C 195.695 154.055,195.692 155.305,199.805 152.424 C 202.109 150.810,212.000 137.362,212.000 135.843 C 212.000 135.379,211.333 135.000,210.517 135.000 C 209.701 135.000,207.873 137.291,206.454 140.090 M209.646 147.250 C 208.305 149.588,206.913 152.489,206.553 153.699 C 206.192 154.908,205.002 156.182,203.907 156.529 C 201.630 157.252,201.988 159.841,204.938 164.000 C 207.560 167.696,210.000 167.828,210.000 164.273 C 210.000 162.693,209.457 160.857,208.793 160.193 C 207.850 159.250,207.959 158.612,209.293 157.279 C 210.902 155.669,211.000 155.670,211.000 157.299 C 211.000 158.250,211.542 159.896,212.205 160.957 C 213.420 162.902,212.588 165.410,207.411 175.416 C 206.053 178.041,206.063 178.489,207.513 179.916 C 208.983 181.362,209.246 181.334,210.544 179.583 C 211.326 178.528,212.482 175.041,213.113 171.833 C 213.744 168.625,214.652 166.000,215.130 166.000 C 215.965 166.000,216.407 167.554,216.083 169.355 C 215.813 170.861,218.183 173.000,220.122 173.000 C 223.539 173.000,221.866 168.639,216.669 163.995 L 213.502 161.165 215.831 158.014 C 217.231 156.121,217.905 154.194,217.519 153.188 C 216.962 151.736,216.613 151.845,214.901 154.007 L 212.925 156.500 213.591 151.500 C 213.956 148.750,214.664 145.713,215.163 144.750 C 215.881 143.365,215.654 143.000,214.077 143.000 C 212.782 143.000,211.231 144.487,209.646 147.250 M363.000 151.893 L 363.000 156.000 358.000 156.000 L 353.000 156.000 353.000 152.500 L 353.000 149.000 347.923 149.000 L 342.847 149.000 343.170 152.750 C 343.494 156.499,343.493 156.500,338.997 157.112 C 333.987 157.794,333.039 157.082,333.015 152.619 C 333.001 149.848,332.857 149.762,329.250 150.358 C 327.188 150.699,325.038 150.983,324.474 150.989 C 323.882 150.995,323.607 152.676,323.824 154.956 C 324.161 158.483,323.931 158.979,321.703 159.539 C 316.793 160.771,314.527 159.779,314.187 156.250 C 313.843 152.689,313.308 152.509,307.702 154.066 C 304.627 154.920,304.008 155.490,304.452 157.060 C 304.753 158.127,305.232 159.827,305.516 160.837 C 305.920 162.278,305.194 162.925,302.150 163.837 C 296.669 165.479,296.238 165.360,295.503 162.011 C 294.648 158.121,294.179 157.913,289.135 159.194 C 285.848 160.028,285.031 160.636,285.515 161.886 C 287.650 167.401,287.311 168.577,283.194 169.936 C 278.481 171.492,277.378 170.998,276.486 166.936 C 276.118 165.263,275.521 164.033,275.159 164.202 C 274.797 164.371,272.813 165.161,270.750 165.956 C 266.528 167.584,266.398 167.935,268.512 172.023 C 270.019 174.938,270.011 174.954,266.052 176.974 C 261.462 179.315,260.013 179.500,259.968 177.750 C 259.951 177.063,259.285 175.640,258.490 174.588 C 257.082 172.728,256.936 172.725,253.022 174.490 C 248.544 176.509,248.452 176.692,250.532 179.441 C 252.735 182.354,252.336 183.825,248.750 186.011 C 244.453 188.631,243.810 188.532,241.761 184.931 L 240.021 181.875 236.899 183.687 C 232.835 186.047,232.450 187.261,234.610 190.917 C 235.592 192.579,236.194 194.066,235.947 194.223 C 235.701 194.379,233.995 195.563,232.156 196.853 L 228.812 199.199 226.156 196.047 L 223.500 192.896 220.000 195.848 L 216.500 198.800 218.850 201.994 L 221.199 205.188 217.850 208.053 C 213.730 211.578,213.606 211.586,211.179 208.500 C 208.658 205.295,207.993 205.352,204.437 209.077 L 201.500 212.154 204.401 214.659 L 207.302 217.164 203.682 220.785 L 200.061 224.406 197.716 222.203 C 194.608 219.284,193.673 219.412,190.492 223.192 L 187.806 226.384 190.403 228.275 C 193.685 230.666,193.660 231.785,190.236 235.887 L 187.471 239.198 184.645 236.372 L 181.819 233.546 178.936 237.023 C 175.283 241.429,175.293 242.464,179.000 244.000 C 180.650 244.683,182.000 245.501,182.000 245.818 C 182.000 246.620,176.831 254.000,176.268 254.000 C 176.016 254.000,174.520 253.082,172.945 251.961 L 170.081 249.921 167.296 254.129 C 165.395 257.001,164.902 258.467,165.742 258.747 C 166.419 258.973,167.935 259.937,169.111 260.889 C 171.152 262.542,171.176 262.759,169.631 265.746 C 167.436 269.991,166.567 270.345,162.936 268.467 C 161.219 267.579,159.688 266.998,159.534 267.176 C 158.739 268.096,156.000 274.027,156.000 274.829 C 156.000 275.340,157.350 276.317,159.000 277.000 C 162.478 278.441,162.503 278.553,160.442 283.483 C 158.843 287.312,157.718 287.610,152.745 285.520 C 151.369 284.942,150.665 285.557,149.495 288.359 C 147.428 293.305,147.541 293.693,151.422 294.974 L 154.843 296.103 153.294 300.651 C 151.665 305.432,151.704 305.417,145.086 303.812 C 144.318 303.626,143.267 305.243,142.485 307.815 C 141.313 311.670,141.350 312.184,142.836 312.646 C 148.780 314.492,148.928 314.671,147.841 318.698 C 146.462 323.805,145.908 324.213,142.136 322.898 C 140.355 322.277,138.738 321.933,138.542 322.134 C 138.347 322.335,137.869 324.638,137.480 327.250 C 136.807 331.774,136.885 332.001,139.136 332.015 C 143.313 332.042,144.287 333.344,143.521 337.876 C 142.847 341.863,142.698 342.000,139.019 342.000 C 134.892 342.000,134.000 343.081,134.000 348.082 C 134.000 350.502,134.413 351.000,136.418 351.000 C 141.050 351.000,141.625 351.718,141.043 356.776 L 140.500 361.497 136.750 361.172 L 133.000 360.847 133.000 365.923 L 133.000 371.000 136.500 371.000 L 140.000 371.000 140.000 376.000 L 140.000 381.000 136.500 381.000 C 133.019 381.000,133.000 381.024,133.000 385.500 L 133.000 390.000 136.872 390.000 C 140.626 390.000,140.764 390.124,141.394 394.061 C 142.220 399.229,141.690 400.000,137.310 400.000 C 133.739 400.000,133.738 400.001,134.358 403.750 C 134.699 405.813,134.983 408.020,134.989 408.655 C 134.996 409.422,136.327 409.632,138.950 409.280 C 142.487 408.805,142.957 408.998,143.456 411.125 C 144.922 417.385,144.653 418.332,141.199 419.067 C 139.384 419.452,137.719 419.947,137.500 420.166 C 137.281 420.385,137.583 422.459,138.171 424.775 C 139.231 428.950,139.271 428.980,142.994 428.385 C 147.195 427.713,147.536 428.008,148.500 433.150 C 149.158 436.655,149.051 436.828,145.523 437.993 C 142.749 438.908,142.018 439.600,142.501 440.850 C 142.853 441.758,143.396 443.771,143.710 445.323 C 144.303 448.263,144.123 448.234,150.623 446.424 C 152.346 445.944,152.958 446.442,153.873 449.066 C 155.567 453.926,155.282 455.006,152.000 456.150 C 148.609 457.332,148.314 458.772,150.568 463.131 C 151.720 465.360,152.580 465.974,153.818 465.452 C 158.432 463.506,159.536 463.803,161.279 467.460 C 163.559 472.239,163.498 472.551,160.000 474.000 C 156.510 475.445,156.445 475.768,158.685 480.466 C 160.589 484.458,160.860 484.573,163.559 482.532 C 166.660 480.186,168.348 480.749,170.730 484.921 L 172.960 488.826 169.454 490.895 L 165.947 492.964 168.595 496.964 L 171.242 500.964 174.285 498.797 L 177.328 496.630 180.164 500.027 C 181.724 501.896,183.000 503.748,183.000 504.144 C 183.000 504.540,181.650 505.825,180.001 507.000 L 177.001 509.135 179.619 512.568 C 182.631 516.516,183.971 516.795,186.500 514.000 C 187.495 512.900,188.578 512.000,188.905 512.000 C 189.232 512.000,190.786 513.612,192.358 515.582 L 195.217 519.165 192.400 522.105 L 189.583 525.045 192.762 528.224 L 195.942 531.403 198.285 529.202 C 201.272 526.396,201.799 526.433,205.195 529.687 C 208.523 532.875,208.684 534.092,206.000 535.768 C 203.171 537.534,203.509 539.409,207.219 542.531 L 210.437 545.239 213.046 542.114 L 215.655 538.989 219.577 542.396 L 223.500 545.802 221.250 548.215 C 218.265 551.417,218.392 552.076,222.537 554.900 C 225.970 557.238,226.097 557.251,227.499 555.400 C 228.289 554.355,228.951 553.163,228.968 552.750 C 229.034 551.201,232.606 552.094,235.452 554.372 C 238.343 556.685,238.369 556.788,236.702 559.332 C 234.336 562.942,234.505 563.531,238.640 566.087 C 242.549 568.502,242.477 568.530,245.559 563.415 C 246.553 561.767,246.878 561.804,250.809 564.013 C 255.486 566.641,255.525 566.722,253.468 569.441 C 251.201 572.438,251.689 573.884,255.595 575.747 C 259.478 577.598,259.426 577.622,262.507 572.498 C 263.449 570.931,263.791 570.933,267.757 572.520 C 270.091 573.453,272.000 574.408,272.000 574.641 C 272.000 574.874,271.347 576.628,270.548 578.539 L 269.096 582.013 272.670 583.507 C 277.549 585.545,277.773 585.479,279.423 581.530 C 280.832 578.159,280.967 578.092,284.186 579.175 C 289.412 580.934,290.002 581.696,288.802 585.137 C 287.570 588.672,288.178 589.457,293.192 590.810 C 296.810 591.787,296.897 591.744,297.559 588.653 C 298.525 584.147,298.498 584.163,303.511 585.310 L 308.070 586.353 307.421 590.676 C 306.904 594.129,307.073 595.000,308.261 595.000 C 309.080 595.000,311.126 595.275,312.809 595.612 C 315.689 596.188,315.907 596.012,316.545 592.612 C 317.267 588.762,318.028 588.456,323.940 589.638 C 326.994 590.249,327.103 590.433,326.499 594.004 C 325.940 597.313,326.130 597.802,328.185 598.353 C 329.458 598.694,331.738 598.979,333.250 598.986 C 335.729 598.999,336.000 598.655,336.000 595.500 L 336.000 592.000 341.105 592.000 L 346.210 592.000 345.829 596.000 L 345.447 600.000 350.163 600.000 C 354.866 600.000,354.880 599.990,355.190 596.352 C 355.498 592.728,355.531 592.704,360.250 592.596 L 365.000 592.489 365.000 596.244 L 365.000 600.000 370.088 600.000 L 375.176 600.000 374.524 596.141 C 373.874 592.297,373.887 592.280,377.686 591.652 C 383.623 590.671,383.782 590.751,384.515 595.090 C 385.118 598.656,385.481 599.106,387.353 598.603 C 388.534 598.287,390.572 598.021,391.882 598.014 C 394.088 598.001,394.223 597.701,393.718 593.935 C 393.132 589.562,393.149 589.545,399.134 588.554 C 402.650 587.972,402.790 588.067,403.423 591.441 C 403.783 593.360,404.398 595.096,404.789 595.299 C 405.180 595.502,407.433 595.263,409.796 594.766 C 413.122 594.068,413.986 593.484,413.625 592.182 C 413.369 591.257,412.883 589.537,412.547 588.359 C 412.048 586.614,412.522 586.014,415.117 585.109 C 420.556 583.213,421.841 583.638,422.580 587.577 C 423.298 591.400,423.898 591.510,430.442 589.022 C 432.672 588.174,432.856 587.751,431.987 585.465 C 430.422 581.350,430.790 580.269,434.149 579.098 C 438.810 577.473,439.634 577.702,441.000 581.000 C 442.423 584.435,442.806 584.526,447.532 582.551 C 451.522 580.884,451.517 580.900,449.426 576.857 C 448.561 575.184,447.998 573.688,448.176 573.534 C 449.365 572.507,455.156 570.000,456.342 570.000 C 457.135 570.000,458.070 571.144,458.421 572.543 C 459.311 576.088,461.118 576.453,465.371 573.944 L 469.030 571.785 466.992 568.488 L 464.955 565.191 468.503 562.998 C 472.554 560.494,474.528 560.869,476.160 564.451 L 477.302 566.958 481.151 564.795 C 485.344 562.438,485.693 561.500,483.468 558.559 C 481.248 555.624,481.656 554.376,485.639 551.914 L 489.278 549.665 491.889 552.780 L 494.500 555.895 497.941 552.965 L 501.382 550.035 499.191 547.703 C 496.226 544.547,496.410 543.552,500.540 540.402 L 504.080 537.702 506.837 540.343 L 509.594 542.985 513.047 540.082 L 516.500 537.180 513.579 534.107 C 510.688 531.065,510.678 531.014,512.568 528.925 C 516.030 525.099,517.952 524.606,520.409 526.914 C 523.413 529.737,524.333 529.564,527.352 525.605 L 529.941 522.211 526.788 519.779 L 523.635 517.348 526.950 513.705 L 530.265 510.062 533.310 512.445 L 536.355 514.828 539.177 511.277 C 540.730 509.323,542.000 507.434,542.000 507.078 C 542.000 506.722,540.650 505.634,539.000 504.659 C 537.350 503.684,536.012 502.575,536.027 502.193 C 536.042 501.812,537.338 499.951,538.908 498.057 C 541.718 494.669,541.804 494.641,544.346 496.307 C 545.767 497.238,547.359 498.000,547.883 498.000 C 549.483 498.000,553.558 490.686,552.209 490.236 C 551.559 490.020,550.067 489.065,548.894 488.115 L 546.761 486.388 548.935 482.127 L 551.109 477.867 554.471 479.850 C 558.240 482.074,558.583 481.917,560.633 477.020 C 561.957 473.858,561.932 473.423,560.354 472.270 C 559.399 471.571,558.029 471.000,557.309 471.000 C 556.589 471.000,556.000 470.559,556.000 470.020 C 556.000 468.674,559.112 461.000,559.658 461.000 C 559.901 461.000,561.469 461.708,563.143 462.574 C 564.816 463.439,566.312 464.002,566.466 463.824 C 567.283 462.879,570.000 456.961,570.000 456.127 C 570.000 455.593,568.425 454.635,566.500 454.000 C 564.575 453.365,563.000 452.722,563.000 452.572 C 563.000 452.421,563.515 450.769,564.145 448.899 C 565.992 443.416,566.657 442.959,570.473 444.553 L 573.827 445.955 575.367 441.435 L 576.907 436.915 574.204 435.928 C 572.717 435.385,570.891 434.725,570.146 434.462 C 569.318 434.169,569.054 433.307,569.466 432.242 C 569.837 431.284,570.387 429.278,570.688 427.785 C 571.208 425.208,571.458 425.101,575.618 425.671 C 579.126 426.152,580.000 425.970,580.000 424.761 C 580.000 423.930,580.270 421.902,580.599 420.255 C 581.160 417.452,580.967 417.216,577.599 416.585 C 574.516 416.006,574.002 415.522,574.014 413.205 C 574.021 411.717,574.298 409.490,574.629 408.257 C 575.156 406.288,575.689 406.087,578.971 406.611 C 582.295 407.143,582.782 406.947,583.342 404.855 C 584.789 399.452,584.238 398.294,579.891 397.599 C 576.252 397.017,575.850 396.687,576.377 394.721 C 576.705 393.499,576.979 391.205,576.986 389.622 C 577.000 386.826,577.114 386.763,581.000 387.384 L 585.000 388.024 585.000 383.072 L 585.000 378.121 581.250 377.810 C 577.536 377.503,577.497 377.454,577.195 372.750 L 576.890 368.000 580.945 368.000 L 585.000 368.000 585.000 363.500 L 585.000 359.000 581.117 359.000 C 576.949 359.000,576.043 357.713,576.014 351.750 C 576.001 349.192,576.288 349.000,580.125 349.000 C 584.212 349.000,584.244 348.971,583.625 345.875 C 583.281 344.156,583.000 341.879,583.000 340.814 C 583.000 339.086,582.516 338.950,578.500 339.552 C 574.449 340.160,574.000 340.029,574.000 338.239 C 574.000 337.145,573.719 334.844,573.375 333.125 C 572.889 330.693,573.096 330.000,574.310 330.000 C 575.168 330.000,576.983 329.577,578.344 329.059 C 580.682 328.170,580.761 327.895,579.777 324.018 L 578.736 319.917 574.511 320.551 C 570.378 321.170,570.273 321.115,569.643 317.967 C 568.457 312.034,568.761 311.267,572.584 310.550 C 575.415 310.019,576.030 309.523,575.514 308.189 C 575.154 307.260,574.604 305.229,574.290 303.677 C 573.697 300.737,573.878 300.765,567.373 302.577 C 565.556 303.083,565.017 302.498,563.680 298.574 L 562.114 293.979 565.557 292.541 C 569.487 290.898,569.622 290.373,567.342 285.590 C 565.723 282.195,565.617 282.147,562.891 283.556 C 558.980 285.579,558.582 285.445,556.685 281.466 C 554.404 276.681,554.527 276.061,558.000 274.850 C 561.557 273.610,561.669 272.818,558.918 268.368 C 556.577 264.580,556.276 264.477,553.559 266.532 C 550.645 268.736,549.716 268.362,547.213 263.980 L 544.926 259.976 548.433 257.907 C 551.906 255.858,551.924 255.812,550.280 253.169 C 546.947 247.811,547.003 247.835,543.322 250.110 C 541.437 251.275,539.773 252.064,539.624 251.864 C 537.281 248.720,535.001 245.009,535.003 244.346 C 535.004 243.881,536.319 242.620,537.924 241.545 L 540.843 239.589 537.829 235.784 L 534.815 231.978 531.772 234.539 L 528.729 237.099 525.905 233.800 C 522.407 229.712,522.374 229.079,525.533 226.538 L 528.066 224.500 524.858 220.626 L 521.650 216.753 518.852 220.126 L 516.053 223.500 512.402 219.685 L 508.751 215.869 511.625 212.845 L 514.500 209.820 511.047 206.918 L 507.594 204.015 504.899 206.597 C 501.949 209.423,500.217 209.108,496.574 205.082 C 494.699 203.010,494.703 202.945,496.836 200.675 C 499.595 197.738,499.563 197.399,496.250 194.484 C 492.646 191.312,491.580 191.394,489.282 195.024 L 487.367 198.048 483.140 194.987 L 478.914 191.925 480.957 189.328 C 483.677 185.869,483.592 185.529,479.360 182.913 C 475.448 180.496,475.084 180.643,472.083 185.854 C 471.437 186.977,470.809 186.941,468.402 185.641 C 462.648 182.532,462.662 182.555,464.406 179.182 C 465.283 177.487,466.000 175.861,466.000 175.570 C 466.000 175.279,464.198 174.121,461.995 172.997 L 457.990 170.954 456.301 174.496 C 455.372 176.444,454.362 177.914,454.056 177.764 C 453.750 177.613,451.813 176.839,449.750 176.044 C 445.519 174.413,445.395 174.070,447.538 169.926 L 449.077 166.951 444.788 165.102 C 442.430 164.086,440.197 163.427,439.827 163.639 C 439.457 163.850,438.858 165.368,438.497 167.011 C 437.758 170.378,436.487 170.648,431.394 168.520 C 427.764 167.004,427.696 166.702,429.739 161.264 C 430.173 160.109,428.685 159.259,423.293 157.580 C 421.412 156.994,420.955 157.381,420.206 160.196 C 419.432 163.108,418.950 163.482,416.148 163.351 C 410.492 163.085,409.754 162.413,410.470 158.179 L 411.114 154.363 406.547 153.318 L 401.980 152.273 401.345 156.244 C 400.718 160.166,400.666 160.207,397.105 159.618 C 395.122 159.290,392.878 159.017,392.118 159.011 C 391.089 159.003,390.871 157.998,391.264 155.067 C 391.855 150.659,391.096 150.000,385.418 150.000 C 382.178 150.000,382.000 150.183,382.000 153.500 L 382.000 157.000 377.000 157.000 L 372.000 157.000 372.000 153.000 C 372.000 149.247,371.820 149.000,369.082 149.000 C 367.477 149.000,365.452 148.727,364.582 148.393 C 363.298 147.900,363.000 148.559,363.000 151.893 M539.127 152.294 C 535.870 157.564,529.409 163.000,526.401 163.000 C 524.975 163.000,522.502 162.069,520.904 160.932 C 517.458 158.478,517.255 159.265,520.122 163.969 L 522.237 167.439 518.869 170.296 C 514.935 173.632,507.571 177.551,500.500 180.072 C 496.033 181.664,495.824 181.862,498.540 181.927 C 502.702 182.027,512.822 179.298,516.645 177.045 C 519.025 175.642,520.074 175.472,520.955 176.345 C 521.837 177.221,521.972 177.115,521.513 175.908 C 521.109 174.847,522.301 173.057,525.085 170.542 L 529.263 166.768 536.239 167.455 C 541.798 168.003,543.126 167.874,542.779 166.821 C 542.540 166.094,540.579 165.269,538.422 164.986 C 533.947 164.400,533.688 162.820,537.568 159.768 C 540.982 157.083,543.302 152.361,542.186 150.368 C 541.452 149.056,540.923 149.389,539.127 152.294 M220.250 157.662 C 218.093 158.533,218.867 159.636,222.913 161.461 C 228.237 163.861,230.970 162.113,227.429 158.571 C 225.897 157.040,222.772 156.644,220.250 157.662 M377.000 168.063 C 402.252 170.383,429.307 178.103,452.168 189.512 C 473.565 200.190,489.483 211.521,505.534 227.500 C 538.016 259.836,558.727 302.603,565.098 350.500 C 566.770 363.068,566.531 390.282,564.636 403.188 C 558.073 447.876,538.169 487.872,507.003 519.000 C 471.966 553.993,432.669 573.496,385.000 579.548 C 365.425 582.034,334.274 581.136,317.500 577.604 C 282.781 570.293,249.299 553.926,223.500 531.654 C 192.140 504.582,168.027 465.692,157.937 425.913 C 153.528 408.529,151.896 394.789,151.889 375.000 C 151.873 326.711,166.167 284.558,195.162 247.391 C 204.234 235.762,223.069 217.059,234.000 208.824 C 273.868 178.791,327.470 163.513,377.000 168.063 M523.096 183.045 C 524.513 192.010,524.462 191.950,530.557 191.790 C 533.551 191.711,536.000 191.522,536.000 191.370 C 536.000 191.218,534.353 190.312,532.341 189.358 C 530.056 188.273,527.559 185.814,525.691 182.811 C 524.047 180.165,522.611 178.000,522.500 178.000 C 522.389 178.000,522.658 180.270,523.096 183.045 M335.667 203.667 C 335.300 204.033,335.000 229.233,335.000 259.667 L 335.000 315.000 349.500 315.000 L 364.000 315.000 364.000 259.000 L 364.000 203.000 350.167 203.000 C 342.558 203.000,336.033 203.300,335.667 203.667 M379.750 203.792 L 372.000 204.084 372.000 259.542 L 372.000 315.000 382.000 315.000 L 392.000 315.000 392.000 259.125 L 392.000 203.250 389.750 203.375 C 388.513 203.444,384.013 203.631,379.750 203.792 M122.693 216.114 C 123.687 217.827,127.364 221.865,130.865 225.087 C 136.446 230.224,137.148 231.272,136.566 233.594 C 135.960 236.006,136.042 236.101,137.480 234.663 C 139.657 232.486,141.588 233.503,144.500 238.361 L 146.981 242.500 146.991 238.118 C 146.996 235.560,146.210 232.438,145.101 230.618 C 144.036 228.869,143.185 225.598,143.163 223.169 C 143.141 220.786,142.838 217.540,142.490 215.955 L 141.857 213.073 137.841 214.680 C 134.141 216.161,133.555 216.158,130.379 214.644 C 128.483 213.740,125.572 213.000,123.910 213.000 L 120.887 213.000 122.693 216.114 M326.500 216.525 C 318.143 223.731,306.244 228.680,290.500 231.496 C 280.030 233.369,271.999 236.865,263.250 243.358 C 257.034 247.970,257.000 248.023,257.000 252.998 L 257.000 258.000 294.000 258.000 L 331.000 258.000 331.000 235.500 C 331.000 223.125,330.888 213.017,330.750 213.038 C 330.613 213.058,328.700 214.627,326.500 216.525 M405.250 219.667 L 397.000 223.193 397.000 242.035 L 397.000 260.877 405.833 281.688 C 410.691 293.135,415.751 305.313,417.078 308.750 L 419.490 315.000 432.188 315.000 L 444.886 315.000 450.943 309.392 C 454.274 306.308,457.000 303.369,457.000 302.862 C 457.000 302.354,454.607 296.890,451.683 290.719 C 448.758 284.549,439.690 265.213,431.531 247.750 C 420.940 225.084,416.239 216.020,415.098 216.071 C 414.219 216.109,409.788 217.728,405.250 219.667 M139.554 218.087 C 139.923 218.685,139.720 219.680,139.102 220.298 C 138.270 221.130,137.403 220.848,135.767 219.211 L 133.556 217.000 136.219 217.000 C 137.684 217.000,139.184 217.489,139.554 218.087 M602.151 220.651 C 601.429 222.384,599.750 224.825,598.420 226.076 C 595.802 228.534,595.304 230.601,597.177 231.226 C 599.526 232.009,596.791 234.003,593.191 234.132 L 589.500 234.263 592.903 234.882 C 597.021 235.630,598.379 238.475,596.206 241.801 C 594.604 244.253,595.385 245.940,598.321 246.371 C 599.192 246.499,600.930 247.480,602.185 248.552 C 603.934 250.046,604.151 250.094,603.119 248.760 C 601.940 247.237,602.067 246.902,604.136 246.073 C 606.315 245.201,606.226 245.121,603.000 245.048 C 597.569 244.926,596.295 243.725,598.318 240.638 C 599.231 239.245,599.709 237.406,599.382 236.552 C 598.897 235.289,599.636 235.000,603.358 235.000 C 608.784 235.000,610.464 232.982,608.354 229.000 C 607.333 227.073,607.026 226.912,607.015 228.298 C 606.997 230.403,601.005 233.349,599.577 231.954 C 599.016 231.407,599.731 229.073,601.397 226.012 C 602.906 223.239,603.988 220.190,603.801 219.235 C 603.556 217.982,603.098 218.376,602.151 220.651 M101.744 224.361 C 99.019 226.887,98.025 228.721,100.065 227.460 C 100.651 227.098,102.749 227.106,104.729 227.477 C 107.356 227.970,110.139 229.955,115.030 234.826 C 118.715 238.497,124.762 244.402,128.466 247.949 C 132.170 251.496,135.606 255.463,136.100 256.764 C 136.595 258.066,137.000 263.418,137.000 268.659 C 137.000 277.434,136.837 278.230,134.943 278.725 C 133.658 279.061,133.096 279.807,133.443 280.713 C 133.750 281.511,134.000 282.352,134.000 282.582 C 134.000 283.668,142.116 282.861,142.550 281.731 C 142.817 281.033,142.128 276.911,141.018 272.571 C 138.310 261.981,138.355 260.154,141.311 260.719 C 143.829 261.201,146.593 258.769,145.513 257.021 C 145.151 256.435,142.115 254.572,138.766 252.882 C 130.597 248.758,123.078 241.046,119.099 232.707 C 115.659 225.499,113.191 223.230,107.850 222.363 C 105.176 221.929,103.928 222.338,101.744 224.361 M590.661 224.823 C 588.543 227.162,588.443 230.151,590.509 229.358 C 591.985 228.792,593.690 224.356,592.781 223.447 C 592.528 223.195,591.574 223.813,590.661 224.823 M622.231 226.208 C 621.533 227.056,619.078 228.052,616.775 228.420 L 612.588 229.090 615.544 231.038 C 619.018 233.328,622.838 233.587,623.606 231.584 C 623.905 230.806,624.003 228.931,623.825 227.417 C 623.544 225.035,623.329 224.873,622.231 226.208 M570.980 233.524 C 569.291 235.560,570.027 236.094,575.167 236.564 L 579.500 236.960 575.750 235.880 C 571.729 234.723,570.918 233.429,573.750 232.689 C 575.226 232.303,575.246 232.214,573.872 232.116 C 572.977 232.052,571.676 232.686,570.980 233.524 M611.000 233.031 C 611.000 233.564,611.675 234.000,612.500 234.000 C 613.325 234.000,614.000 233.823,614.000 233.607 C 614.000 233.391,613.325 232.955,612.500 232.638 C 611.675 232.322,611.000 232.499,611.000 233.031 M158.440 234.265 C 155.966 235.614,154.709 237.751,154.502 240.960 C 154.411 242.357,154.011 244.400,153.613 245.500 C 152.983 247.237,153.108 247.204,154.566 245.250 C 156.952 242.051,158.490 242.450,160.355 246.750 L 161.981 250.500 161.489 244.810 C 161.205 241.531,161.421 238.858,161.998 238.501 C 163.444 237.608,163.231 234.302,161.690 233.711 C 160.969 233.435,159.506 233.684,158.440 234.265 M621.750 239.179 C 622.988 240.526,624.000 241.902,624.000 242.235 C 624.000 242.568,621.080 243.153,617.512 243.536 C 613.944 243.918,611.270 244.629,611.571 245.115 C 612.463 246.559,623.416 246.147,625.546 244.590 C 627.447 243.200,627.446 243.151,625.498 240.998 C 624.411 239.797,622.617 238.345,621.511 237.772 C 619.685 236.824,619.707 236.954,621.750 239.179 M584.000 238.696 C 584.825 238.992,587.413 240.056,589.750 241.061 C 592.088 242.066,594.000 242.666,594.000 242.395 C 594.000 241.617,585.664 238.038,584.000 238.101 C 582.667 238.152,582.667 238.218,584.000 238.696 M610.000 238.750 C 610.000 239.346,608.763 240.285,607.250 240.838 L 604.500 241.842 607.281 241.921 C 609.925 241.996,612.036 239.703,610.624 238.290 C 610.281 237.947,610.000 238.154,610.000 238.750 M568.750 243.577 C 566.916 245.427,568.395 247.285,573.500 249.542 C 576.525 250.880,579.000 252.413,579.000 252.948 C 579.000 254.968,569.978 261.988,567.371 261.996 C 566.751 261.998,565.679 260.640,564.991 258.979 C 562.056 251.893,561.152 257.010,564.010 264.527 C 565.361 268.080,568.594 266.603,575.653 259.208 C 579.376 255.307,582.266 253.046,582.971 253.482 C 583.612 253.878,583.898 254.822,583.608 255.580 C 583.302 256.376,584.475 258.023,586.384 259.479 C 590.155 262.355,592.513 262.779,591.607 260.418 C 591.273 259.548,591.000 258.198,591.000 257.418 C 591.000 256.638,590.135 256.000,589.077 256.000 C 588.019 256.000,585.881 254.937,584.327 253.637 C 582.772 252.337,578.942 250.068,575.815 248.595 C 572.689 247.122,569.989 245.220,569.815 244.369 C 569.642 243.517,569.163 243.161,568.750 243.577 M583.694 246.468 C 585.571 248.120,586.003 248.952,585.000 248.984 C 583.667 249.025,583.667 249.138,585.000 250.000 C 587.156 251.394,590.028 251.232,589.447 249.750 C 588.978 248.556,582.649 244.000,581.458 244.000 C 581.145 244.000,582.151 245.111,583.694 246.468 M596.991 251.588 C 600.638 255.000,602.935 256.316,605.948 256.720 C 610.811 257.372,611.379 255.644,607.500 252.000 C 605.050 249.698,603.841 250.441,606.200 252.800 C 608.950 255.550,603.018 253.858,598.136 250.500 C 595.338 248.575,592.832 247.000,592.567 247.000 C 592.302 247.000,594.293 249.065,596.991 251.588 M120.443 258.612 L 115.961 263.223 119.231 262.683 C 121.029 262.386,123.755 261.830,125.290 261.447 C 127.762 260.831,128.214 261.107,129.259 263.876 C 130.999 268.484,132.000 267.689,132.000 261.700 C 132.000 252.504,127.538 251.312,120.443 258.612 M271.667 263.667 C 271.300 264.033,271.000 268.083,271.000 272.667 L 271.000 281.000 301.000 281.000 L 331.000 281.000 331.000 272.000 L 331.000 263.000 301.667 263.000 C 285.533 263.000,272.033 263.300,271.667 263.667 M271.000 291.000 L 271.000 299.000 301.000 299.000 L 331.000 299.000 331.000 291.000 L 331.000 283.000 301.000 283.000 L 271.000 283.000 271.000 291.000 M271.210 310.250 L 271.500 318.500 277.646 318.667 L 283.792 318.833 285.479 314.417 C 286.406 311.987,287.601 310.000,288.134 310.000 C 288.666 310.000,293.361 311.813,298.566 314.028 C 310.482 319.100,312.064 319.398,322.476 318.530 L 331.000 317.820 331.000 309.910 L 331.000 302.000 300.960 302.000 L 270.919 302.000 271.210 310.250 M291.714 318.682 C 291.210 319.526,284.808 339.480,268.352 391.500 C 247.001 458.996,238.748 484.541,238.047 485.296 C 237.640 485.734,234.930 485.155,232.024 484.009 C 229.118 482.864,226.585 482.082,226.396 482.271 C 225.312 483.354,220.273 495.624,220.656 496.247 C 221.532 497.675,232.263 502.085,238.362 503.523 C 244.824 505.047,257.787 505.483,259.520 504.235 C 260.439 503.573,263.000 498.579,263.000 497.449 C 263.000 497.198,259.850 495.584,256.000 493.862 C 252.150 492.141,249.000 490.323,249.000 489.824 C 249.000 489.324,250.769 483.421,252.931 476.707 C 255.093 469.993,263.681 442.675,272.016 416.000 C 280.350 389.325,290.281 357.662,294.085 345.637 C 297.888 333.613,301.000 323.194,301.000 322.485 C 301.000 321.776,299.763 320.748,298.250 320.200 C 296.738 319.653,294.758 318.903,293.851 318.534 C 292.944 318.165,291.982 318.232,291.714 318.682 M209.000 337.289 L 209.000 352.577 214.750 355.973 C 217.913 357.841,224.433 361.761,229.239 364.684 C 234.046 367.608,238.433 370.000,238.989 370.000 C 239.642 370.000,240.000 361.502,240.000 346.000 L 240.000 322.000 224.500 322.000 L 209.000 322.000 209.000 337.289 M245.233 347.697 L 245.500 373.395 253.835 378.197 C 258.419 380.839,262.512 383.000,262.930 383.000 C 263.348 383.000,264.612 379.963,265.738 376.250 C 266.864 372.538,270.984 359.184,274.893 346.576 C 278.802 333.968,282.000 323.280,282.000 322.826 C 282.000 322.372,273.667 322.000,263.483 322.000 L 244.966 322.000 245.233 347.697 M309.681 322.750 C 309.441 323.163,305.558 335.650,301.052 350.500 C 296.545 365.350,291.561 381.773,289.975 386.995 C 288.388 392.218,287.408 396.800,287.795 397.179 C 288.183 397.557,291.174 399.472,294.441 401.434 L 300.382 405.000 348.941 404.996 L 397.500 404.992 404.552 398.233 C 408.431 394.516,415.013 388.909,419.179 385.774 C 423.981 382.160,426.889 379.237,427.126 377.787 C 427.332 376.529,427.373 363.463,427.218 348.750 L 426.936 322.000 368.527 322.000 C 336.402 322.000,309.922 322.338,309.681 322.750 M436.513 326.250 C 436.178 328.588,436.038 340.066,436.202 351.758 L 436.500 373.017 441.500 369.745 L 446.500 366.473 446.769 344.237 L 447.038 322.000 442.080 322.000 L 437.123 322.000 436.513 326.250 M454.000 344.430 L 454.000 361.861 465.380 356.452 C 481.446 348.815,502.990 342.000,511.065 342.000 C 514.554 342.000,513.502 346.415,509.500 348.570 L 506.000 350.455 506.000 368.027 L 506.000 385.598 509.500 386.864 C 512.942 388.108,513.000 388.224,512.997 393.815 C 512.995 399.299,512.868 399.571,509.407 401.500 L 505.819 403.500 505.882 419.250 C 505.916 427.913,505.957 435.669,505.972 436.487 C 505.988 437.304,507.575 438.631,509.500 439.436 L 513.000 440.898 513.000 457.449 L 513.000 474.000 516.500 474.000 L 520.000 474.000 520.000 457.492 L 520.000 440.984 523.863 439.438 L 527.725 437.893 527.613 420.699 L 527.500 403.506 523.753 401.503 C 520.103 399.552,520.005 399.353,520.003 393.859 L 520.000 388.217 524.052 386.596 L 528.105 384.974 527.887 367.922 L 527.669 350.869 523.842 348.685 C 520.644 346.859,520.014 345.966,520.008 343.250 C 520.002 341.024,520.473 340.000,521.500 340.000 C 522.679 340.000,523.000 338.611,523.000 333.500 L 523.000 327.000 488.500 327.000 L 454.000 327.000 454.000 344.430 M520.816 357.899 C 522.250 358.664,522.453 360.206,522.184 368.287 L 521.868 377.776 518.934 378.363 C 517.320 378.686,514.874 378.523,513.500 378.000 C 511.094 377.085,511.000 376.717,511.000 368.225 C 511.000 362.694,511.448 358.952,512.200 358.200 C 513.613 356.787,518.418 356.619,520.816 357.899 M606.774 411.089 C 606.297 414.335,607.862 415.792,616.750 420.375 C 618.538 421.297,620.000 422.410,620.000 422.849 C 620.000 423.288,616.400 424.256,612.000 425.000 C 607.180 425.815,604.000 426.832,604.000 427.557 C 604.000 428.219,602.206 434.979,600.013 442.579 C 595.902 456.826,595.917 457.946,600.211 457.985 C 601.367 457.995,602.273 456.701,603.000 454.000 C 603.592 451.800,604.329 450.000,604.636 450.000 C 604.944 450.000,611.309 451.805,618.782 454.011 C 632.819 458.156,633.946 458.139,633.985 453.789 C 633.995 452.655,632.735 451.731,630.250 451.050 C 612.332 446.145,606.510 444.133,606.606 442.880 C 606.665 442.121,607.021 440.115,607.398 438.421 C 607.973 435.840,607.721 435.181,605.839 434.341 C 603.925 433.487,605.302 432.867,615.196 430.127 C 626.590 426.971,626.912 426.940,633.139 428.378 C 639.938 429.949,641.261 429.449,640.756 425.500 C 640.547 423.870,639.389 423.334,634.500 422.602 C 629.502 421.853,626.793 420.558,618.283 414.852 C 612.664 411.083,607.878 408.000,607.647 408.000 C 607.416 408.000,607.023 409.390,606.774 411.089 M519.471 409.989 C 522.057 410.972,522.071 411.036,521.786 420.739 L 521.500 430.500 516.500 430.500 L 511.500 430.500 511.205 421.500 C 510.937 413.299,511.102 412.345,513.066 410.750 C 515.571 408.716,515.992 408.666,519.471 409.989 M94.000 416.288 C 85.475 417.972,78.349 419.461,78.164 419.595 C 77.268 420.244,80.484 435.266,82.081 437.893 C 85.221 443.057,95.024 443.328,98.933 438.359 C 100.611 436.225,101.197 436.035,103.050 437.027 C 108.090 439.724,116.000 435.012,116.000 429.313 C 116.000 427.983,115.289 423.768,114.420 419.947 C 113.215 414.650,112.443 413.027,111.170 413.112 C 110.251 413.174,102.525 414.603,94.000 416.288 M307.000 422.500 L 307.000 430.000 353.500 430.000 L 400.000 430.000 400.000 422.500 L 400.000 415.000 353.500 415.000 L 307.000 415.000 307.000 422.500 M108.967 423.399 C 110.261 427.320,109.488 431.599,107.337 432.424 C 104.885 433.365,102.203 431.219,101.507 427.758 C 101.146 425.966,100.641 423.749,100.384 422.831 C 99.908 421.132,101.448 420.342,105.672 420.116 C 107.301 420.029,108.126 420.850,108.967 423.399 M95.025 425.565 C 96.355 429.064,96.251 433.349,94.800 434.800 C 93.185 436.415,88.513 436.323,87.124 434.649 C 86.507 433.906,85.722 431.250,85.379 428.746 C 84.701 423.802,85.152 423.372,91.275 423.116 C 93.388 423.028,94.282 423.611,95.025 425.565 M348.548 438.985 L 302.596 439.500 295.798 447.816 L 289.000 456.133 289.000 463.066 L 289.000 470.000 351.869 470.000 L 414.738 470.000 415.358 466.250 C 416.583 458.840,416.147 457.281,411.180 451.302 C 408.529 448.111,405.574 444.296,404.614 442.825 C 402.951 440.277,397.955 437.733,395.601 438.235 C 394.995 438.364,373.822 438.701,348.548 438.985 M102.500 446.063 C 94.250 448.764,86.938 450.980,86.250 450.987 C 84.448 451.006,84.642 452.240,88.176 463.242 C 91.255 472.829,91.429 473.109,93.924 472.483 C 95.338 472.128,96.623 471.710,96.779 471.554 C 96.935 471.399,95.967 467.823,94.629 463.608 L 92.195 455.945 95.720 454.473 C 97.658 453.663,99.808 453.000,100.498 453.000 C 101.188 453.000,102.590 455.925,103.614 459.500 C 105.485 466.035,106.474 466.906,110.338 465.424 C 111.647 464.922,111.593 464.129,109.920 459.267 C 107.256 451.523,107.413 450.516,111.478 449.268 L 114.955 448.201 117.287 455.850 C 119.243 462.267,119.932 463.446,121.560 463.166 C 122.627 462.983,123.905 462.443,124.400 461.967 C 125.374 461.029,119.428 440.947,118.214 441.075 C 117.821 441.117,110.750 443.361,102.500 446.063 M593.850 461.500 C 593.768 462.325,593.655 463.487,593.600 464.083 C 593.545 464.678,598.900 467.167,605.500 469.615 C 624.087 476.507,626.299 477.129,627.197 475.716 C 629.289 472.424,627.807 471.434,612.243 465.724 C 603.585 462.547,595.938 459.960,595.250 459.974 C 594.563 459.988,593.933 460.675,593.850 461.500 M111.642 472.454 C 102.920 475.953,95.413 479.195,94.961 479.658 C 94.508 480.121,94.669 481.472,95.319 482.660 C 96.494 484.809,96.586 484.786,112.331 478.496 C 121.038 475.017,128.398 471.936,128.685 471.648 C 128.973 471.360,128.824 469.992,128.354 468.608 L 127.500 466.090 111.642 472.454 M591.500 472.954 C 587.732 474.512,584.785 478.728,584.270 483.294 C 583.839 487.123,584.155 488.141,586.636 490.910 C 589.714 494.345,595.248 496.192,598.668 494.927 C 599.812 494.504,602.675 491.872,605.031 489.079 C 609.710 483.530,613.124 482.495,615.026 486.049 C 617.447 490.572,612.531 497.938,608.043 496.514 C 606.715 496.092,605.972 496.514,605.516 497.949 C 604.559 500.966,605.684 502.000,609.924 502.000 C 614.859 502.000,618.379 499.192,620.541 493.533 C 623.623 485.461,619.764 479.018,611.441 478.341 C 605.940 477.894,605.157 478.338,600.151 484.750 C 596.638 489.248,593.291 490.260,591.011 487.513 C 588.431 484.404,592.129 478.000,596.504 478.000 C 598.033 478.000,599.103 477.251,599.540 475.875 C 600.620 472.472,596.386 470.933,591.500 472.954 M275.445 479.284 C 275.174 479.990,275.075 488.652,275.226 498.534 L 275.500 516.500 353.250 516.756 L 431.000 517.012 431.000 497.506 L 431.000 478.000 353.469 478.000 C 291.283 478.000,275.840 478.254,275.445 479.284 M105.230 486.987 C 99.256 490.656,98.545 496.636,103.495 501.586 C 107.526 505.617,111.886 504.879,126.162 497.750 C 135.253 493.211,138.550 491.089,138.205 490.000 C 136.915 485.915,136.019 486.045,123.702 492.106 C 110.712 498.499,106.743 499.210,106.180 495.244 C 105.944 493.587,106.681 492.524,108.953 491.244 C 111.039 490.068,111.957 488.852,111.773 487.510 C 111.399 484.781,109.119 484.599,105.230 486.987 M125.403 504.833 C 111.201 513.006,110.366 513.653,111.306 515.760 C 111.856 516.992,112.820 518.000,113.450 518.000 C 114.322 518.000,141.839 502.941,143.912 501.329 C 144.561 500.825,142.132 495.991,141.271 496.073 C 140.847 496.114,133.707 500.056,125.403 504.833 M580.000 496.672 C 576.971 497.861,574.701 500.656,571.326 507.352 C 569.426 511.121,568.013 514.321,568.186 514.462 C 568.359 514.604,575.202 518.682,583.392 523.525 C 597.433 531.828,598.362 532.225,599.642 530.474 C 600.389 529.453,601.000 528.309,601.000 527.931 C 601.000 527.553,598.525 525.744,595.500 523.911 C 592.475 522.077,590.002 520.110,590.004 519.539 C 590.010 517.785,593.922 511.967,595.503 511.360 C 596.323 511.046,599.173 512.186,601.835 513.894 C 604.497 515.602,606.959 517.000,607.306 517.000 C 607.652 517.000,608.557 515.815,609.316 514.367 C 610.675 511.773,610.613 511.690,605.246 508.867 C 602.249 507.290,598.324 506.000,596.523 506.000 C 593.697 506.000,593.169 505.596,592.659 503.045 C 591.768 498.592,584.470 494.918,580.000 496.672 M587.171 504.655 C 588.177 505.565,589.000 506.975,589.000 507.787 C 589.000 508.938,586.193 514.452,584.379 516.864 C 584.170 517.142,578.359 513.993,576.176 512.419 C 575.787 512.139,578.839 506.015,580.247 504.250 C 581.646 502.498,585.005 502.694,587.171 504.655 M131.937 515.204 C 123.997 520.702,117.649 525.717,117.832 526.347 C 118.942 530.175,120.252 529.861,129.784 523.487 C 135.069 519.953,139.583 517.249,139.813 517.480 C 140.179 517.846,136.560 524.475,129.096 537.115 C 127.008 540.652,127.002 540.781,128.819 543.025 L 130.677 545.319 142.088 537.724 C 148.365 533.546,154.954 528.862,156.732 527.314 C 159.621 524.799,159.816 524.306,158.569 522.677 C 157.256 520.963,156.588 521.245,147.390 527.397 C 142.009 530.995,137.452 533.785,137.263 533.596 C 137.074 533.407,139.863 528.220,143.460 522.069 C 147.057 515.918,150.000 510.644,150.000 510.350 C 150.000 510.056,149.184 508.778,148.187 507.511 L 146.374 505.206 131.937 515.204 M558.488 525.933 C 555.195 530.296,552.500 534.332,552.500 534.901 C 552.500 535.471,558.650 540.632,566.167 546.371 L 579.833 556.806 581.753 554.653 C 582.809 553.469,585.844 549.628,588.497 546.117 C 592.274 541.120,593.101 539.383,592.304 538.117 C 590.323 534.972,588.309 535.888,583.897 541.945 C 581.479 545.264,579.144 547.984,578.710 547.990 C 577.412 548.007,572.000 543.702,572.000 542.653 C 572.000 542.119,573.777 539.328,575.950 536.450 C 579.793 531.360,579.849 531.173,578.008 529.507 C 575.559 527.290,574.904 527.608,570.816 532.995 C 566.881 538.182,565.426 538.702,562.087 536.115 L 559.674 534.246 564.337 528.311 C 566.902 525.046,569.000 522.003,569.000 521.548 C 569.000 520.734,565.988 518.094,564.988 518.032 C 564.706 518.014,561.781 521.570,558.488 525.933 M154.500 535.995 C 143.800 541.326,138.111 551.543,141.425 559.475 C 142.641 562.385,144.009 563.598,147.950 565.264 C 151.950 566.954,152.713 567.641,151.805 568.735 C 150.947 569.769,151.028 570.456,152.138 571.566 C 153.425 572.854,154.488 572.210,160.888 566.266 L 168.172 559.500 164.191 555.649 C 161.168 552.726,159.703 551.960,158.105 552.467 C 155.437 553.313,155.423 555.168,158.066 557.560 C 160.018 559.326,160.035 559.501,158.375 560.715 C 154.056 563.874,147.000 560.202,147.000 554.795 C 147.000 548.184,155.721 540.000,162.765 540.000 C 167.133 540.000,170.370 544.238,169.637 548.997 C 169.283 551.299,169.618 553.186,170.614 554.500 C 172.118 556.484,172.145 556.482,174.065 554.139 C 175.289 552.646,175.999 550.257,175.996 547.639 C 175.987 536.865,164.856 530.835,154.500 535.995 M337.235 536.046 C 334.143 537.275,332.511 541.700,333.827 545.281 C 334.578 547.324,334.501 548.733,333.535 550.595 C 331.863 553.818,332.576 556.521,335.758 559.024 C 339.023 561.593,343.460 561.540,346.098 558.902 C 347.775 557.225,348.068 556.071,347.557 553.152 C 346.880 549.280,346.758 546.622,347.063 542.403 C 347.390 537.864,341.784 534.237,337.235 536.046 M362.357 536.058 C 359.693 537.050,356.999 540.782,357.004 543.473 C 357.006 544.588,357.928 547.009,359.052 548.854 C 360.850 551.802,361.514 552.159,364.548 551.805 C 368.206 551.378,368.632 551.951,366.965 555.066 C 365.734 557.366,363.171 557.608,362.362 555.500 C 362.045 554.675,360.934 554.000,359.893 554.000 C 357.423 554.000,357.476 556.476,360.000 559.000 C 364.032 563.032,369.037 561.089,371.546 554.520 C 375.313 544.655,369.677 533.332,362.357 536.058 M314.232 538.000 C 313.545 539.100,312.312 540.000,311.492 540.000 C 310.671 540.000,310.000 540.450,310.000 541.000 C 310.000 541.550,310.883 542.000,311.962 542.000 C 313.750 542.000,313.951 542.823,314.212 551.239 C 314.457 559.107,314.760 560.527,316.250 560.812 C 317.842 561.116,318.000 560.009,318.000 548.573 C 318.000 539.131,317.686 536.000,316.741 536.000 C 316.048 536.000,314.919 536.900,314.232 538.000 M385.725 537.752 C 378.625 545.597,382.544 562.103,391.201 560.813 C 396.297 560.053,399.196 550.084,395.507 546.007 C 394.363 544.743,392.424 544.000,390.272 544.000 C 387.556 544.000,386.922 543.640,387.187 542.250 C 387.620 539.976,391.810 539.342,392.611 541.430 C 393.491 543.721,397.000 543.434,397.000 541.071 C 397.000 536.414,389.052 534.075,385.725 537.752 M547.655 539.829 C 546.745 540.835,546.000 541.964,546.000 542.338 C 546.000 542.712,548.530 546.952,551.623 551.759 C 559.563 564.101,560.103 565.000,559.577 565.000 C 559.319 565.000,554.075 562.075,547.924 558.500 C 541.773 554.925,536.419 552.000,536.025 552.000 C 535.221 552.000,532.000 555.361,532.000 556.200 C 532.000 556.498,539.372 560.499,548.383 565.091 C 562.531 572.302,564.986 573.257,566.383 572.097 C 567.272 571.359,568.000 570.161,568.000 569.436 C 568.000 568.257,550.282 538.000,549.592 538.000 C 549.437 538.000,548.565 538.823,547.655 539.829 M342.500 542.514 C 342.500 544.826,342.052 545.500,340.514 545.500 C 338.434 545.500,337.406 542.989,338.412 540.368 C 339.457 537.645,342.500 539.242,342.500 542.514 M367.290 541.095 C 367.843 541.973,367.987 543.914,367.612 545.410 C 367.090 547.491,366.412 548.056,364.725 547.815 C 362.298 547.468,361.489 545.173,362.447 541.354 C 363.140 538.596,365.632 538.462,367.290 541.095 M393.000 552.109 C 393.000 555.117,391.845 557.000,390.000 557.000 C 386.746 557.000,385.740 549.825,388.750 548.092 C 390.732 546.952,393.000 549.096,393.000 552.109 M343.455 551.859 C 344.453 555.004,343.017 557.140,340.131 556.804 C 337.477 556.495,336.315 554.227,337.384 551.442 C 338.200 549.314,342.747 549.627,343.455 551.859 M526.532 560.353 C 524.814 561.609,525.533 562.646,536.591 574.851 C 543.141 582.081,548.954 587.997,549.509 587.998 C 550.065 587.999,551.087 587.091,551.781 585.980 C 552.928 584.143,552.018 582.824,541.784 571.480 C 535.591 564.616,530.043 559.000,529.454 559.000 C 528.864 559.000,527.550 559.609,526.532 560.353 M519.043 567.448 C 517.652 569.125,517.578 568.985,525.343 579.348 C 528.557 583.637,531.017 587.316,530.809 587.524 C 530.602 587.732,525.573 585.409,519.635 582.363 C 511.683 578.284,508.189 576.987,506.376 577.442 C 502.127 578.508,502.505 580.664,508.187 587.755 C 511.160 591.465,515.822 597.537,518.546 601.250 C 523.672 608.235,524.913 609.015,526.964 606.544 C 528.406 604.805,528.353 604.707,520.320 594.356 C 516.844 589.877,514.000 585.936,514.000 585.599 C 514.000 585.261,519.393 587.688,525.985 590.992 C 532.576 594.297,538.314 596.986,538.735 596.968 C 539.156 596.951,540.367 596.280,541.427 595.479 C 543.297 594.063,543.255 593.881,539.977 589.260 C 533.882 580.668,521.981 566.000,521.104 566.000 C 520.631 566.000,519.704 566.651,519.043 567.448 M495.441 584.450 C 493.215 586.114,492.825 585.173,501.849 599.915 C 504.682 604.543,507.000 609.311,507.000 610.510 C 507.000 613.336,504.013 616.000,500.846 616.000 C 497.664 616.000,495.525 613.531,489.580 603.000 C 483.261 591.808,482.893 591.443,480.184 593.704 L 478.033 595.500 484.266 606.106 C 491.787 618.902,492.618 619.941,496.688 621.642 C 501.034 623.459,505.457 622.378,509.578 618.491 C 515.517 612.890,514.323 607.452,503.500 590.815 C 500.750 586.588,498.249 583.101,497.941 583.065 C 497.634 583.029,496.509 583.653,495.441 584.450 M231.164 600.750 C 223.781 613.686,221.296 617.000,218.978 617.000 C 216.312 617.000,215.475 614.616,216.719 610.565 C 217.575 607.776,217.438 607.130,215.768 606.087 C 214.144 605.073,213.585 605.173,212.440 606.684 C 210.646 609.050,209.622 614.358,210.378 617.371 C 211.183 620.577,215.437 623.200,219.833 623.200 C 224.523 623.200,226.747 620.683,234.947 606.094 C 241.006 595.314,241.242 594.650,239.479 593.361 C 238.455 592.612,237.289 592.000,236.888 592.000 C 236.487 592.000,233.911 595.938,231.164 600.750 M237.959 613.082 C 233.516 621.955,230.020 629.330,230.190 629.472 C 231.177 630.292,235.213 632.109,235.430 631.831 C 236.366 630.633,251.086 599.763,250.825 599.544 C 250.646 599.394,249.496 598.749,248.269 598.110 C 246.122 596.994,245.729 597.564,237.959 613.082 M259.597 610.250 C 251.660 619.881,241.008 633.539,241.004 634.089 C 241.002 634.414,242.107 635.183,243.459 635.799 C 245.651 636.798,246.183 636.581,248.363 633.796 L 250.808 630.671 255.654 632.654 C 260.216 634.521,260.518 634.875,260.801 638.681 C 261.037 641.861,261.632 642.967,263.585 643.857 C 265.495 644.727,266.158 644.701,266.460 643.744 C 266.676 643.060,267.592 634.867,268.497 625.538 C 270.060 609.413,270.054 608.513,268.379 607.288 C 265.392 605.104,263.240 605.830,259.597 610.250 M263.498 618.750 C 263.173 620.813,262.687 623.934,262.420 625.686 C 261.954 628.739,261.809 628.829,258.965 627.838 C 257.332 627.269,255.788 626.466,255.534 626.055 C 254.996 625.185,262.114 615.073,263.295 615.029 C 263.733 615.013,263.824 616.688,263.498 618.750 M284.195 617.022 C 277.185 621.297,273.658 636.263,277.670 644.717 C 282.391 654.665,296.171 654.266,301.838 644.017 C 307.327 634.089,305.837 620.035,298.915 616.456 C 294.885 614.372,288.115 614.632,284.195 617.022 M405.719 619.717 C 396.034 625.924,397.129 647.590,407.449 653.969 C 412.158 656.879,418.016 656.317,421.916 652.580 C 424.959 649.665,426.000 649.366,426.000 651.406 C 426.000 652.337,426.701 652.629,428.074 652.270 C 429.584 651.875,430.012 651.153,429.646 649.614 C 429.370 648.451,428.601 644.575,427.937 641.000 C 427.273 637.425,426.453 634.196,426.115 633.824 C 425.352 632.986,415.204 635.218,415.086 636.250 C 414.574 640.730,414.969 641.228,418.500 640.566 C 421.768 639.953,422.000 640.081,422.000 642.500 C 422.000 645.718,417.867 650.008,414.795 649.978 C 408.325 649.915,402.448 638.234,404.998 630.507 C 407.098 624.144,413.154 622.054,417.330 626.250 C 418.808 627.734,420.494 628.392,422.285 628.184 C 425.385 627.822,425.361 627.871,423.932 624.797 C 421.227 618.983,411.220 616.192,405.719 619.717 M310.000 622.744 C 310.000 625.471,310.364 625.803,314.000 626.384 C 317.286 626.910,317.999 627.423,317.996 629.262 C 317.993 631.184,316.268 643.163,314.486 653.633 C 313.998 656.503,314.206 656.803,316.964 657.208 C 319.680 657.607,320.023 657.348,320.463 654.575 C 320.731 652.884,321.749 646.325,322.725 640.000 L 324.500 628.500 329.250 628.833 C 333.924 629.160,334.000 629.118,334.000 626.198 C 334.000 623.242,333.966 623.225,325.750 622.055 C 321.213 621.409,315.813 620.625,313.750 620.312 C 310.124 619.763,310.000 619.843,310.000 622.744 M296.738 622.529 C 303.756 627.444,297.578 646.000,288.923 646.000 C 284.376 646.000,282.000 642.901,282.000 636.968 C 282.000 625.062,289.652 617.565,296.738 622.529 M344.500 624.355 C 338.307 627.187,335.118 633.571,335.044 643.282 C 334.990 650.351,336.714 654.740,340.941 658.297 C 347.268 663.621,357.755 661.057,361.644 653.234 C 364.304 647.883,364.225 635.731,361.500 631.105 C 357.568 624.430,350.486 621.618,344.500 624.355 M387.459 635.250 L 388.139 647.500 384.763 642.000 C 382.906 638.975,379.846 633.688,377.962 630.250 C 375.066 624.963,374.121 624.000,371.828 624.000 C 370.338 624.000,368.860 624.417,368.545 624.927 C 367.981 625.839,369.688 653.361,370.581 657.750 C 370.913 659.386,371.744 660.000,373.627 660.000 L 376.216 660.000 375.536 649.750 C 375.163 644.113,374.617 638.659,374.324 637.632 C 373.031 633.105,376.460 637.305,382.380 647.500 C 388.227 657.571,389.039 658.527,391.990 658.821 L 395.213 659.143 394.635 653.321 C 394.318 650.120,393.804 644.125,393.495 640.000 C 392.283 623.848,392.073 623.000,389.296 623.000 L 386.779 623.000 387.459 635.250 M353.003 630.502 C 358.980 633.592,359.552 646.810,353.968 652.804 C 351.204 655.771,346.945 655.635,343.987 652.486 C 339.091 647.275,340.578 632.963,346.303 630.197 C 349.280 628.758,349.666 628.776,353.003 630.502 " stroke="none" fill="black" fill-rule="evenodd"/></svg>